HIERARCHY
ROOT pelvis
{
  OFFSET 0 100 0
  CHANNELS 6 Xposition Yposition Zposition Zrotation Xrotation Yrotation
  JOINT pelvis_right_femur
  {
    OFFSET -10.78128 -3.44521 -0.5502486
    CHANNELS 3 Zrotation Xrotation Yrotation
    JOINT right_femur_tibia
    {
      OFFSET -0.8047443 -44.0398 -0.1307829
      CHANNELS 3 Zrotation Xrotation Yrotation
      JOINT right_tibia_foot
      {
        OFFSET 3.006224 -47.83518 -5
        CHANNELS 3 Zrotation Xrotation Yrotation
        End Site
        {
          OFFSET 0 -5 15
        }
      }
    }
  }
  JOINT pelvis_left_femur
  {
    OFFSET 10.78128 -3.44521 -0.5502486
    CHANNELS 3 Zrotation Xrotation Yrotation
    JOINT left_femur_tibia
    {
      OFFSET 0.8047443 -44.0398 -0.1307829
      CHANNELS 3 Zrotation Xrotation Yrotation
      JOINT left_tibia_foot
      {
        OFFSET -4.370144 -48.10324 -4.275266
        CHANNELS 3 Zrotation Xrotation Yrotation
        End Site
        {
          OFFSET 0 -5 15
        }
      }
    }
  }
  JOINT pelvis_spine1
  {
    OFFSET 0 6.468898 -3.129235
    CHANNELS 3 Zrotation Xrotation Yrotation
    JOINT spine1
    {
      OFFSET 0 23.15396 4.99043
      CHANNELS 3 Zrotation Xrotation Yrotation
      JOINT spine2
      {
        OFFSET 0 20.79997 -5.064912
        CHANNELS 3 Zrotation Xrotation Yrotation
        JOINT neck
        {
          OFFSET 0 14.38658 9.616178
          CHANNELS 3 Zrotation Xrotation Yrotation
          End Site
          {
            OFFSET 0 20 0
          }
        }
      }
      JOINT right_manubrium
      {
        OFFSET -5.722621 16.35077 3.967754
        CHANNELS 3 Zrotation Xrotation Yrotation
        JOINT right_clavicle
        {
          OFFSET -13.16364 1.694482 -4.693211
          CHANNELS 3 Zrotation Xrotation Yrotation
          JOINT right_humerus
          {
            OFFSET -28.5034 -0.3100689 -2.792744
            CHANNELS 3 Zrotation Xrotation Yrotation
            JOINT right_radius
            {
              OFFSET -25.15693 0.02248979 -1.271978
              CHANNELS 3 Zrotation Xrotation Yrotation
              End Site
              {
                OFFSET -15 0 0
              }
            }
          }
        }
      }
      JOINT left_manubrium
      {
        OFFSET 5.722621 16.35077 3.967754
        CHANNELS 3 Zrotation Xrotation Yrotation
        JOINT left_clavicle
        {
          OFFSET 13.16364 1.694482 -4.693211
          CHANNELS 3 Zrotation Xrotation Yrotation
          JOINT left_humerus
          {
            OFFSET 29.39168 -1.063119 -2.237045
            CHANNELS 3 Zrotation Xrotation Yrotation
            JOINT left_radius
            {
              OFFSET 24.59957 -0.9528479 0.9047498
              CHANNELS 3 Zrotation Xrotation Yrotation
              End Site
              {
                OFFSET 15 -0 -0
              }
            }
          }
        }
      }
    }
  }
}
MOTION
Frames: 21
Frame Time: 0.0416666666667
628.6884 93.50259 2572.704 4.210335 -7.287264 10.4702 -1.81165 2.101613 -8.467686 -0 37.40353 -0 -18.12836 0.6279833 8.326141 -3.11495 -10.0825 -12.44598 -0 15.12724 -0 -3.734298 -5.84875 15.07898 -2.374875 0.01134436 5.726589 -3.607959 11.88339 -2.180134 -1.206633 22.52348 9.654416 13.10103 -9.365447 0.288741 10.97621 -17.31103 12.64174 75.27131 40.5117 -4.838809 -0 0 22.15698 -25.69412 9.40333 6.670856 10.36706 -24.23255 -8.480253 -92.09926 1.287999 20.23967 -0 0 2.983525 25.04993 13.77415 -22.4893
631.0015 93.52265 2577.513 4.216442 -7.283746 10.51836 -1.81165 2.101613 -8.467686 -0 37.40353 -0 -18.12836 0.6279833 8.326141 -3.11495 -10.0825 -12.44598 -0 15.12724 -0 -3.734298 -5.84875 15.07898 -2.374875 0.01134436 5.726589 -3.607959 11.88339 -2.180134 -1.206633 22.52348 9.654416 13.10103 -9.365447 0.288741 10.97621 -17.31103 12.64174 75.27131 40.5117 -4.838809 -0 0 22.15698 -25.69412 9.40333 6.670856 10.36706 -24.23255 -8.480253 -92.09926 1.287999 20.23967 -0 0 2.983525 25.04993 13.77415 -22.4893
633.3187 93.54271 2582.321 4.222546 -7.280222 10.56651 -1.81165 2.101613 -8.467686 -0 37.40353 -0 -18.12836 0.6279833 8.326141 -3.11495 -10.0825 -12.44598 -0 15.12724 -0 -3.734298 -5.84875 15.07898 -2.374875 0.01134436 5.726589 -3.607959 11.88339 -2.180134 -1.206633 22.52348 9.654416 13.10103 -9.365447 0.288741 10.97621 -17.31103 12.64174 75.27131 40.5117 -4.838809 -0 0 22.15698 -25.69412 9.40333 6.670856 10.36706 -24.23255 -8.480253 -92.09926 1.287999 20.23967 -0 0 2.983525 25.04993 13.77415 -22.4893
635.6399 93.56276 2587.127 4.228646 -7.276692 10.61466 -1.81165 2.101613 -8.467686 -0 37.40353 -0 -18.12836 0.6279833 8.326141 -3.11495 -10.0825 -12.44598 -0 15.12724 -0 -3.734298 -5.84875 15.07898 -2.374875 0.01134436 5.726589 -3.607959 11.88339 -2.180134 -1.206633 22.52348 9.654416 13.10103 -9.365447 0.288741 10.97621 -17.31103 12.64174 75.27131 40.5117 -4.838809 -0 0 22.15698 -25.69412 9.40333 6.670856 10.36706 -24.23255 -8.480253 -92.09926 1.287999 20.23967 -0 0 2.983525 25.04993 13.77415 -22.4893
637.965 93.58282 2591.93 4.234744 -7.273158 10.66282 -1.81165 2.101613 -8.467686 -0 37.40353 -0 -18.12836 0.6279833 8.326141 -3.11495 -10.0825 -12.44598 -0 15.12724 -0 -3.734298 -5.84875 15.07898 -2.374875 0.01134436 5.726589 -3.607959 11.88339 -2.180134 -1.206633 22.52348 9.654416 13.10103 -9.365447 0.288741 10.97621 -17.31103 12.64174 75.27131 40.5117 -4.838809 -0 0 22.15698 -25.69412 9.40333 6.670856 10.36706 -24.23255 -8.480253 -92.09926 1.287999 20.23967 -0 0 2.983525 25.04993 13.77415 -22.4893
640.2943 93.60288 2596.732 4.240839 -7.269619 10.71097 -1.81165 2.101613 -8.467686 -0 37.40353 -0 -18.12836 0.6279833 8.326141 -3.11495 -10.0825 -12.44598 -0 15.12724 -0 -3.734298 -5.84875 15.07898 -2.374875 0.01134436 5.726589 -3.607959 11.88339 -2.180134 -1.206633 22.52348 9.654416 13.10103 -9.365447 0.288741 10.97621 -17.31103 12.64174 75.27131 40.5117 -4.838809 -0 0 22.15698 -25.69412 9.40333 6.670856 10.36706 -24.23255 -8.480253 -92.09926 1.287999 20.23967 -0 0 2.983525 25.04993 13.77415 -22.4893
642.6275 93.62294 2601.532 4.24693 -7.266075 10.75912 -1.81165 2.101613 -8.467686 -0 37.40353 -0 -18.12836 0.6279833 8.326141 -3.11495 -10.0825 -12.44598 -0 15.12724 -0 -3.734298 -5.84875 15.07898 -2.374875 0.01134436 5.726589 -3.607959 11.88339 -2.180134 -1.206633 22.52348 9.654416 13.10103 -9.365447 0.288741 10.97621 -17.31103 12.64174 75.27131 40.5117 -4.838809 -0 0 22.15698 -25.69412 9.40333 6.670856 10.36706 -24.23255 -8.480253 -92.09926 1.287999 20.23967 -0 0 2.983525 25.04993 13.77415 -22.4893
644.9647 93.64299 2606.33 4.253018 -7.262525 10.80727 -1.81165 2.101613 -8.467686 -0 37.40353 -0 -18.12836 0.6279833 8.326141 -3.11495 -10.0825 -12.44598 -0 15.12724 -0 -3.734298 -5.84875 15.07898 -2.374875 0.01134436 5.726589 -3.607959 11.88339 -2.180134 -1.206633 22.52348 9.654416 13.10103 -9.365447 0.288741 10.97621 -17.31103 12.64174 75.27131 40.5117 -4.838809 -0 0 22.15698 -25.69412 9.40333 6.670856 10.36706 -24.23255 -8.480253 -92.09926 1.287999 20.23967 -0 0 2.983525 25.04993 13.77415 -22.4893
647.3059 93.66305 2611.126 4.259104 -7.258971 10.85542 -1.81165 2.101613 -8.467686 -0 37.40353 -0 -18.12836 0.6279833 8.326141 -3.11495 -10.0825 -12.44598 -0 15.12724 -0 -3.734298 -5.84875 15.07898 -2.374875 0.01134436 5.726589 -3.607959 11.88339 -2.180134 -1.206633 22.52348 9.654416 13.10103 -9.365447 0.288741 10.97621 -17.31103 12.64174 75.27131 40.5117 -4.838809 -0 0 22.15698 -25.69412 9.40333 6.670856 10.36706 -24.23255 -8.480253 -92.09926 1.287999 20.23967 -0 0 2.983525 25.04993 13.77415 -22.4893
649.6512 93.68311 2615.92 4.265186 -7.255411 10.90357 -1.81165 2.101613 -8.467686 -0 37.40353 -0 -18.12836 0.6279833 8.326141 -3.11495 -10.0825 -12.44598 -0 15.12724 -0 -3.734298 -5.84875 15.07898 -2.374875 0.01134436 5.726589 -3.607959 11.88339 -2.180134 -1.206633 22.52348 9.654416 13.10103 -9.365447 0.288741 10.97621 -17.31103 12.64174 75.27131 40.5117 -4.838809 -0 0 22.15698 -25.69412 9.40333 6.670856 10.36706 -24.23255 -8.480253 -92.09926 1.287999 20.23967 -0 0 2.983525 25.04993 13.77415 -22.4893
652.0005 93.70317 2620.712 4.271265 -7.251846 10.95171 -1.81165 2.101613 -8.467686 -0 37.40353 -0 -18.12836 0.6279833 8.326141 -3.11495 -10.0825 -12.44598 -0 15.12724 -0 -3.734298 -5.84875 15.07898 -2.374875 0.01134436 5.726589 -3.607959 11.88339 -2.180134 -1.206633 22.52348 9.654416 13.10103 -9.365447 0.288741 10.97621 -17.31103 12.64174 75.27131 40.5117 -4.838809 -0 0 22.15698 -25.69412 9.40333 6.670856 10.36706 -24.23255 -8.480253 -92.09926 1.287999 20.23967 -0 0 2.983525 25.04993 13.77415 -22.4893
654.3537 93.72323 2625.502 4.277342 -7.248277 10.99986 -1.81165 2.101613 -8.467686 -0 37.40353 -0 -18.12836 0.6279833 8.326141 -3.11495 -10.0825 -12.44598 -0 15.12724 -0 -3.734298 -5.84875 15.07898 -2.374875 0.01134436 5.726589 -3.607959 11.88339 -2.180134 -1.206633 22.52348 9.654416 13.10103 -9.365447 0.288741 10.97621 -17.31103 12.64174 75.27131 40.5117 -4.838809 -0 0 22.15698 -25.69412 9.40333 6.670856 10.36706 -24.23255 -8.480253 -92.09926 1.287999 20.23967 -0 0 2.983525 25.04993 13.77415 -22.4893
656.711 93.74328 2630.29 4.283415 -7.244702 11.04801 -1.81165 2.101613 -8.467686 -0 37.40353 -0 -18.12836 0.6279833 8.326141 -3.11495 -10.0825 -12.44598 -0 15.12724 -0 -3.734298 -5.84875 15.07898 -2.374875 0.01134436 5.726589 -3.607959 11.88339 -2.180134 -1.206633 22.52348 9.654416 13.10103 -9.365447 0.288741 10.97621 -17.31103 12.64174 75.27131 40.5117 -4.838809 -0 0 22.15698 -25.69412 9.40333 6.670856 10.36706 -24.23255 -8.480253 -92.09926 1.287999 20.23967 -0 0 2.983525 25.04993 13.77415 -22.4893
659.0723 93.76334 2635.076 4.289485 -7.241122 11.09615 -1.81165 2.101613 -8.467686 -0 37.40353 -0 -18.12836 0.6279833 8.326141 -3.11495 -10.0825 -12.44598 -0 15.12724 -0 -3.734298 -5.84875 15.07898 -2.374875 0.01134436 5.726589 -3.607959 11.88339 -2.180134 -1.206633 22.52348 9.654416 13.10103 -9.365447 0.288741 10.97621 -17.31103 12.64174 75.27131 40.5117 -4.838809 -0 0 22.15698 -25.69412 9.40333 6.670856 10.36706 -24.23255 -8.480253 -92.09926 1.287999 20.23967 -0 0 2.983525 25.04993 13.77415 -22.4893
661.4375 93.7834 2639.861 4.295552 -7.237537 11.1443 -1.81165 2.101613 -8.467686 -0 37.40353 -0 -18.12836 0.6279833 8.326141 -3.11495 -10.0825 -12.44598 -0 15.12724 -0 -3.734298 -5.84875 15.07898 -2.374875 0.01134436 5.726589 -3.607959 11.88339 -2.180134 -1.206633 22.52348 9.654416 13.10103 -9.365447 0.288741 10.97621 -17.31103 12.64174 75.27131 40.5117 -4.838809 -0 0 22.15698 -25.69412 9.40333 6.670856 10.36706 -24.23255 -8.480253 -92.09926 1.287999 20.23967 -0 0 2.983525 25.04993 13.77415 -22.4893
663.8068 93.80346 2644.643 4.301616 -7.233947 11.19244 -1.81165 2.101613 -8.467686 -0 37.40353 -0 -18.12836 0.6279833 8.326141 -3.11495 -10.0825 -12.44598 -0 15.12724 -0 -3.734298 -5.84875 15.07898 -2.374875 0.01134436 5.726589 -3.607959 11.88339 -2.180134 -1.206633 22.52348 9.654416 13.10103 -9.365447 0.288741 10.97621 -17.31103 12.64174 75.27131 40.5117 -4.838809 -0 0 22.15698 -25.69412 9.40333 6.670856 10.36706 -24.23255 -8.480253 -92.09926 1.287999 20.23967 -0 0 2.983525 25.04993 13.77415 -22.4893
666.18 93.82351 2649.423 4.307676 -7.230352 11.24059 -1.81165 2.101613 -8.467686 -0 37.40353 -0 -18.12836 0.6279833 8.326141 -3.11495 -10.0825 -12.44598 -0 15.12724 -0 -3.734298 -5.84875 15.07898 -2.374875 0.01134436 5.726589 -3.607959 11.88339 -2.180134 -1.206633 22.52348 9.654416 13.10103 -9.365447 0.288741 10.97621 -17.31103 12.64174 75.27131 40.5117 -4.838809 -0 0 22.15698 -25.69412 9.40333 6.670856 10.36706 -24.23255 -8.480253 -92.09926 1.287999 20.23967 -0 0 2.983525 25.04993 13.77415 -22.4893
668.5573 93.84357 2654.201 4.313734 -7.226752 11.28873 -1.81165 2.101613 -8.467686 -0 37.40353 -0 -18.12836 0.6279833 8.326141 -3.11495 -10.0825 -12.44598 -0 15.12724 -0 -3.734298 -5.84875 15.07898 -2.374875 0.01134436 5.726589 -3.607959 11.88339 -2.180134 -1.206633 22.52348 9.654416 13.10103 -9.365447 0.288741 10.97621 -17.31103 12.64174 75.27131 40.5117 -4.838809 -0 0 22.15698 -25.69412 9.40333 6.670856 10.36706 -24.23255 -8.480253 -92.09926 1.287999 20.23967 -0 0 2.983525 25.04993 13.77415 -22.4893
670.9386 93.86363 2658.977 4.319789 -7.223147 11.33687 -1.81165 2.101613 -8.467686 -0 37.40353 -0 -18.12836 0.6279833 8.326141 -3.11495 -10.0825 -12.44598 -0 15.12724 -0 -3.734298 -5.84875 15.07898 -2.374875 0.01134436 5.726589 -3.607959 11.88339 -2.180134 -1.206633 22.52348 9.654416 13.10103 -9.365447 0.288741 10.97621 -17.31103 12.64174 75.27131 40.5117 -4.838809 -0 0 22.15698 -25.69412 9.40333 6.670856 10.36706 -24.23255 -8.480253 -92.09926 1.287999 20.23967 -0 0 2.983525 25.04993 13.77415 -22.4893
673.3238 93.88369 2663.752 4.32584 -7.219537 11.38501 -1.81165 2.101613 -8.467686 -0 37.40353 -0 -18.12836 0.6279833 8.326141 -3.11495 -10.0825 -12.44598 -0 15.12724 -0 -3.734298 -5.84875 15.07898 -2.374875 0.01134436 5.726589 -3.607959 11.88339 -2.180134 -1.206633 22.52348 9.654416 13.10103 -9.365447 0.288741 10.97621 -17.31103 12.64174 75.27131 40.5117 -4.838809 -0 0 22.15698 -25.69412 9.40333 6.670856 10.36706 -24.23255 -8.480253 -92.09926 1.287999 20.23967 -0 0 2.983525 25.04993 13.77415 -22.4893
675.713 93.90374 2668.524 4.331888 -7.215922 11.43315 -1.81165 2.101613 -8.467686 -0 37.40353 -0 -18.12836 0.6279833 8.326141 -3.11495 -10.0825 -12.44598 -0 15.12724 -0 -3.734298 -5.84875 15.07898 -2.374875 0.01134436 5.726589 -3.607959 11.88339 -2.180134 -1.206633 22.52348 9.654416 13.10103 -9.365447 0.288741 10.97621 -17.31103 12.64174 75.27131 40.5117 -4.838809 -0 0 22.15698 -25.69412 9.40333 6.670856 10.36706 -24.23255 -8.480253 -92.09926 1.287999 20.23967 -0 0 2.983525 25.04993 13.77415 -22.4893
